<?xml version="1.0" standalone="no"?>
<!DOCTYPE svg PUBLIC "-//W3C//DTD SVG 20010904//EN"
 "http://www.w3.org/TR/2001/REC-SVG-20010904/DTD/svg10.dtd">
<svg version="1.0" xmlns="http://www.w3.org/2000/svg"
 width="200.000000pt" height="200.000000pt" viewBox="0 0 200.000000 200.000000"
 preserveAspectRatio="xMidYMid meet">
<metadata>
Created by potrace 1.14, written by Peter Selinger 2001-2017
</metadata>
<g transform="translate(0.000000,200.000000) scale(0.100000,-0.100000)"
fill="#000000" stroke="none">
<path d="M1248 1443 c-22 -6 -33 -40 -18 -58 10 -12 39 -15 130 -15 65 0 125
3 134 6 26 10 20 53 -10 64 -25 10 -202 12 -236 3z"/>
<path d="M1225 1310 c-13 -42 9 -50 139 -50 66 0 127 4 134 9 8 4 12 19 10 32
-3 24 -4 24 -140 27 -131 2 -137 2 -143 -18z"/>
<path d="M866 1284 c-9 -8 -16 -19 -16 -24 0 -5 7 -16 16 -24 22 -23 230 -23
262 0 26 18 27 27 6 48 -23 23 -245 23 -268 0z"/>
<path d="M1230 1204 c-10 -11 -11 -20 -3 -32 8 -14 31 -18 124 -20 145 -4 161
0 157 36 l-3 27 -131 3 c-111 2 -133 0 -144 -14z"/>
<path d="M866 1174 c-9 -8 -16 -19 -16 -24 0 -5 7 -16 16 -24 12 -13 39 -16
133 -16 105 0 120 2 136 20 17 19 17 21 0 40 -16 18 -31 20 -136 20 -94 0
-121 -3 -133 -16z"/>
<path d="M1230 1094 c-10 -11 -11 -20 -3 -32 8 -14 31 -18 124 -20 145 -4 161
0 157 36 l-3 27 -131 3 c-111 2 -133 0 -144 -14z"/>
<path d="M685 1067 c-22 -8 -68 -34 -102 -59 -105 -78 -306 -172 -506 -237
-37 -13 -67 -28 -67 -35 0 -22 58 -95 103 -127 52 -39 167 -94 228 -109 45
-11 47 -11 108 28 139 91 279 112 601 92 118 -7 227 -13 241 -12 15 1 91 38
170 83 79 46 209 113 289 151 220 104 235 112 238 131 6 33 -7 63 -33 75 -58
27 -128 15 -416 -69 l-66 -19 1 -44 c1 -55 -24 -93 -80 -121 -33 -16 -57 -19
-149 -17 -60 1 -155 8 -210 15 l-100 13 45 13 c33 10 86 12 203 7 181 -7 215
1 236 53 20 47 0 86 -53 105 -22 9 -120 22 -216 31 -96 8 -209 24 -250 34
-104 28 -168 33 -215 18z"/>
</g>
</svg>
